<svg width="1284" height="2778" viewBox="0 0 1284 2778" fill="none" xmlns="http://www.w3.org/2000/svg">
<rect width="1284" height="2778" fill="#231F20"/>
<path d="M364.182 765.892C383.197 750.495 410.561 751.121 428.853 767.37L445.73 782.363C452.525 788.399 460.837 792.469 469.772 794.135L494.904 798.821C518.654 803.249 535.84 824.026 535.739 848.185L535.628 874.486C535.596 882.097 537.302 889.615 540.615 896.467L552.778 921.615C562.957 942.661 557.193 967.952 538.899 982.509L517.252 999.735C511.271 1004.49 506.46 1010.56 503.19 1017.47L491.432 1042.32C481.353 1063.61 457.775 1074.98 434.835 1069.61L408.547 1063.45C401.047 1061.7 393.242 1061.7 385.741 1063.45L359.454 1069.61C336.514 1074.98 312.936 1063.61 302.857 1042.32L291.098 1017.47C287.829 1010.56 283.018 1004.49 277.037 999.735L255.39 982.509C237.096 967.952 231.332 942.661 241.511 921.615L253.673 896.467C256.987 889.615 258.693 882.097 258.661 874.486L258.544 846.63C258.445 823.171 274.67 802.797 297.556 797.642L324.138 791.654C331.635 789.966 338.642 786.571 344.615 781.735L364.182 765.892Z" fill="#F2F2F2"/>
<path d="M295.484 1551.77C295.837 1551.15 296.494 1550.76 297.208 1550.75L476.094 1549.27C476.808 1549.27 477.472 1549.64 477.834 1550.26L568.559 1704.44C568.921 1705.05 568.928 1705.82 568.575 1706.44L480.415 1862.1C480.063 1862.72 479.406 1863.11 478.691 1863.11L299.805 1864.59C299.091 1864.6 298.428 1864.22 298.065 1863.61L207.34 1709.43C206.978 1708.81 206.972 1708.05 207.324 1707.43L295.484 1551.77Z" fill="#F2F2F2"/>
<path d="M649.05 1075C645.3 1075 643.425 1073.12 643.425 1069.37V780.7C643.425 776.95 645.3 775.075 649.05 775.075H786.3C789.9 775.075 792.9 776.275 795.3 778.675L840.3 823.675C842.85 826.225 844.125 829.225 844.125 832.675V1017.18C844.125 1020.77 842.85 1023.77 840.3 1026.17L795.3 1071.17C792.9 1073.72 789.9 1075 786.3 1075H649.05ZM718.575 1014.92H759.75C766.05 1014.92 769.2 1010.72 769.2 1002.32V847.75C769.2 839.2 766.05 834.925 759.75 834.925H718.575V1014.92ZM900.417 1075C896.667 1075 894.792 1073.12 894.792 1069.37V780.7C894.792 776.95 896.667 775.075 900.417 775.075H1037.67C1041.27 775.075 1044.27 776.275 1046.67 778.675L1091.67 823.675C1094.22 826.225 1095.49 829.225 1095.49 832.675V1017.18C1095.49 1020.77 1094.22 1023.77 1091.67 1026.17L1046.67 1071.17C1044.27 1073.72 1041.27 1075 1037.67 1075H900.417ZM969.942 1014.92H1011.12C1017.42 1014.92 1020.57 1010.72 1020.57 1002.32V847.75C1020.57 839.2 1017.42 834.925 1011.12 834.925H969.942V1014.92Z" fill="#F2F2F2"/>
<path d="M702.825 1862C699.225 1862 696.225 1860.72 693.825 1858.17L648.825 1813.17C646.275 1810.77 645 1807.77 645 1804.18V1567.7C645 1563.95 646.875 1562.07 650.625 1562.07H714.3C718.05 1562.07 719.925 1563.95 719.925 1567.7V1797.42C719.925 1800.42 721.425 1801.92 724.425 1801.92H761.325V1567.7C761.325 1563.95 763.2 1562.07 766.95 1562.07H830.625C834.375 1562.07 836.25 1563.95 836.25 1567.7V1856.37C836.25 1860.12 834.375 1862 830.625 1862H702.825ZM940.84 1862C937.09 1862 935.215 1860.12 935.215 1856.37V1621.92H895.84C892.09 1621.92 890.215 1620.05 890.215 1616.3V1567.7C890.215 1563.95 892.09 1562.07 895.84 1562.07H1049.51C1053.26 1562.07 1055.14 1563.95 1055.14 1567.7V1616.3C1055.14 1620.05 1053.26 1621.92 1049.51 1621.92H1010.14V1856.37C1010.14 1860.12 1008.26 1862 1004.51 1862H940.84Z" fill="#F2F2F2"/>
<path d="M646.625 1461C642.875 1461 641 1459.12 641 1455.37V1166.7C641 1162.95 642.875 1161.07 646.625 1161.07H774.425C778.025 1161.07 781.025 1162.27 783.425 1164.67L828.425 1209.67C830.975 1212.22 832.25 1215.22 832.25 1218.67V1455.37C832.25 1459.12 830.375 1461 826.625 1461H762.95C759.2 1461 757.325 1459.12 757.325 1455.37V1220.92H715.925V1455.37C715.925 1459.12 714.05 1461 710.3 1461H646.625ZM891.84 1461C888.09 1461 886.215 1459.12 886.215 1455.37V1166.7C886.215 1162.95 888.09 1161.07 891.84 1161.07H1048.66C1052.41 1161.07 1054.29 1162.95 1054.29 1166.7V1215.3C1054.29 1219.05 1052.41 1220.92 1048.66 1220.92H961.14V1284.82H1041.01C1044.76 1284.82 1046.64 1286.7 1046.64 1290.45V1331.62C1046.64 1335.37 1044.76 1337.25 1041.01 1337.25H961.14V1400.92H1048.66C1052.41 1400.92 1054.29 1402.8 1054.29 1406.55V1455.37C1054.29 1459.12 1052.41 1461 1048.66 1461H891.84Z" fill="#F2F2F2"/>
<path d="M389.806 1135.34C390.189 1134.67 391.163 1134.67 391.546 1135.34L436.224 1214.19C436.43 1214.55 436.839 1214.75 437.251 1214.68L526.752 1200.45C527.52 1200.33 528.127 1201.09 527.837 1201.81L494.049 1285.9C493.894 1286.29 493.995 1286.73 494.303 1287.02L561.231 1348.12C561.804 1348.64 561.588 1349.59 560.843 1349.82L474.032 1375.83C473.632 1375.95 473.349 1376.3 473.321 1376.72L467.277 1467.14C467.226 1467.92 466.348 1468.34 465.71 1467.9L391.246 1416.25C390.903 1416.01 390.449 1416.01 390.106 1416.25L315.642 1467.9C315.003 1468.34 314.126 1467.92 314.074 1467.14L308.03 1376.72C308.002 1376.3 307.719 1375.95 307.32 1375.83L220.508 1349.82C219.764 1349.59 219.547 1348.64 220.121 1348.12L287.049 1287.02C287.357 1286.73 287.458 1286.29 287.302 1285.9L253.514 1201.81C253.224 1201.09 253.832 1200.33 254.599 1200.45L344.1 1214.68C344.512 1214.75 344.922 1214.55 345.127 1214.19L389.806 1135.34Z" fill="#F2F2F2"/>
</svg>
