<svg width="390" height="844" viewBox="0 0 390 844" fill="none" xmlns="http://www.w3.org/2000/svg">
<rect width="390" height="844" fill="#231F20"/>
<path d="M185.453 319C184.311 319 183.741 318.429 183.741 317.287V229.402C183.741 228.26 184.311 227.689 185.453 227.689H227.238C228.334 227.689 229.247 228.055 229.978 228.785L243.678 242.485C244.454 243.262 244.842 244.175 244.842 245.225V301.396C244.842 302.491 244.454 303.405 243.678 304.135L229.978 317.835C229.247 318.612 228.334 319 227.238 319H185.453ZM206.62 300.71H219.155C221.073 300.71 222.032 299.432 222.032 296.874V249.815C222.032 247.212 221.073 245.91 219.155 245.91H206.62V300.71ZM261.98 319C260.839 319 260.268 318.429 260.268 317.287V229.402C260.268 228.26 260.839 227.689 261.98 227.689H303.765C304.861 227.689 305.775 228.055 306.505 228.785L320.205 242.485C320.982 243.262 321.37 244.175 321.37 245.225V301.396C321.37 302.491 320.982 303.405 320.205 304.135L306.505 317.835C305.775 318.612 304.861 319 303.765 319H261.98ZM283.147 300.71H295.682C297.6 300.71 298.559 299.432 298.559 296.874V249.815C298.559 247.212 297.6 245.91 295.682 245.91H283.147V300.71Z" fill="#F2F2F2"/>
<path d="M204.275 567C203.075 567 202.075 566.575 201.275 565.725L186.275 550.725C185.425 549.925 185 548.925 185 547.725V468.9C185 467.65 185.625 467.025 186.875 467.025H208.1C209.35 467.025 209.975 467.65 209.975 468.9V545.475C209.975 546.475 210.475 546.975 211.475 546.975H223.775V468.9C223.775 467.65 224.4 467.025 225.65 467.025H246.875C248.125 467.025 248.75 467.65 248.75 468.9V565.125C248.75 566.375 248.125 567 246.875 567H204.275ZM283.613 567C282.363 567 281.738 566.375 281.738 565.125V486.975H268.613C267.363 486.975 266.738 486.35 266.738 485.1V468.9C266.738 467.65 267.363 467.025 268.613 467.025H319.838C321.088 467.025 321.713 467.65 321.713 468.9V485.1C321.713 486.35 321.088 486.975 319.838 486.975H306.713V565.125C306.713 566.375 306.088 567 304.838 567H283.613Z" fill="#F2F2F2"/>
<path d="M185.875 443C184.625 443 184 442.375 184 441.125V344.9C184 343.65 184.625 343.025 185.875 343.025H228.475C229.675 343.025 230.675 343.425 231.475 344.225L246.475 359.225C247.325 360.075 247.75 361.075 247.75 362.225V441.125C247.75 442.375 247.125 443 245.875 443H224.65C223.4 443 222.775 442.375 222.775 441.125V362.975H208.975V441.125C208.975 442.375 208.35 443 207.1 443H185.875ZM267.613 443C266.363 443 265.738 442.375 265.738 441.125V344.9C265.738 343.65 266.363 343.025 267.613 343.025H319.888C321.138 343.025 321.763 343.65 321.763 344.9V361.1C321.763 362.35 321.138 362.975 319.888 362.975H290.713V384.275H317.338C318.588 384.275 319.213 384.9 319.213 386.15V399.875C319.213 401.125 318.588 401.75 317.338 401.75H290.713V422.975H319.888C321.138 422.975 321.763 423.6 321.763 424.85V441.125C321.763 442.375 321.138 443 319.888 443H267.613Z" fill="#F2F2F2"/>
<path d="M107.223 230.56C115.459 223.891 127.311 224.162 135.234 231.2C138.177 233.815 141.777 235.578 145.647 236.299L145.895 236.346C156.614 238.344 164.37 247.721 164.324 258.624L164.323 259.061C164.308 262.575 165.119 266.095 166.649 269.259C171.483 279.254 168.812 291.45 160.124 298.363C157.297 300.612 155.007 303.51 153.462 306.775C148.731 316.771 137.62 322.199 126.853 319.677C123.332 318.852 119.668 318.852 116.147 319.677C105.38 322.199 94.2692 316.771 89.5382 306.775C87.993 303.51 85.7025 300.612 82.8759 298.363C74.1878 291.45 71.4621 279.368 76.2963 269.372C77.8725 266.113 78.6919 262.484 78.6767 258.864C78.63 247.799 86.4477 238.028 97.2422 235.597C100.639 234.831 103.86 233.283 106.566 231.092L107.223 230.56Z" fill="#F2F2F2"/>
<path d="M89.6765 470.916C90.0286 470.295 90.6857 469.908 91.4002 469.902L145.111 469.458C145.826 469.452 146.489 469.827 146.851 470.443L174.092 516.736C174.454 517.352 174.461 518.114 174.108 518.736L147.638 565.473C147.286 566.095 146.629 566.482 145.914 566.487L92.2032 566.932C91.4887 566.938 90.8253 566.562 90.463 565.946L63.2225 519.654C62.8602 519.038 62.8539 518.275 63.206 517.654L89.6765 470.916Z" fill="#F2F2F2"/>
<path d="M118.63 342.535C119.013 341.859 119.987 341.859 120.37 342.535L133.346 365.435C133.552 365.798 133.961 365.995 134.373 365.929L160.367 361.797C161.134 361.675 161.742 362.436 161.452 363.157L151.639 387.58C151.483 387.967 151.584 388.41 151.892 388.691L171.33 406.438C171.904 406.961 171.687 407.911 170.943 408.134L145.73 415.689C145.331 415.809 145.047 416.164 145.02 416.58L143.264 442.842C143.213 443.617 142.335 444.04 141.697 443.597L120.07 428.595C119.727 428.358 119.273 428.358 118.93 428.595L97.3034 443.597C96.665 444.04 95.7875 443.617 95.7356 442.842L93.9804 416.58C93.9525 416.164 93.6693 415.809 93.2696 415.689L68.0569 408.134C67.3126 407.911 67.0959 406.961 67.6697 406.438L87.1076 388.691C87.4157 388.41 87.5168 387.967 87.3612 387.58L77.5481 363.157C77.2585 362.436 77.8657 361.675 78.633 361.797L104.627 365.929C105.039 365.995 105.448 365.798 105.654 365.435L118.63 342.535Z" fill="#F2F2F2"/>
</svg>
