<svg width="102" height="102" viewBox="0 0 102 102" fill="none" xmlns="http://www.w3.org/2000/svg">
<path d="M37.6785 10.6621C45.3843 4.49462 56.4049 4.74605 63.8214 11.2585C66.5819 13.6826 69.9953 15.323 73.6082 15.9888C83.6436 17.8384 91.0648 26.7424 91.0213 36.9467C91.0074 40.2138 91.7603 43.497 93.1962 46.4316C97.7207 55.6788 95.1888 66.952 87.0972 73.3165C84.4588 75.3918 82.3217 78.0568 80.8721 81.0845C76.4233 90.3765 66.0424 95.3307 56.0058 93.0069C52.7256 92.2474 49.2744 92.2474 45.9942 93.0069C35.9576 95.3307 25.5767 90.3765 21.1279 81.0845C19.6783 78.0568 17.5412 75.3918 14.9028 73.3165C6.81117 66.952 4.23176 55.776 8.75625 46.5288C10.2322 43.5123 10.9925 40.1941 10.9782 36.8358C10.9344 26.5513 18.0605 17.6184 28.0993 15.3832L28.3753 15.3218C31.5485 14.6152 34.5179 13.1917 37.056 11.1603L37.6785 10.6621Z" fill="#78A65A"/>
<circle cx="36.8498" cy="43.8498" r="5.84979" fill="#F2F2F2"/>
<circle cx="37.3812" cy="46.5087" r="3.1908" fill="#231F20"/>
<circle cx="65.5666" cy="43.8498" r="5.84979" fill="#F2F2F2"/>
<circle cx="66.098" cy="46.5087" r="3.1908" fill="#231F20"/>
</svg>
