<svg width="102" height="103" viewBox="0 0 102 103" fill="none" xmlns="http://www.w3.org/2000/svg">
<path d="M37.6785 13.6621C45.3843 7.49462 56.4049 7.74605 63.8214 14.2585V14.2585C66.5819 16.6826 69.9953 18.323 73.6082 18.9888V18.9888C83.6436 20.8384 91.0648 29.7424 91.0213 39.9467V39.9467C91.0074 43.2138 91.7603 46.497 93.1962 49.4316V49.4316C97.7207 58.6788 95.1888 69.952 87.0972 76.3165V76.3165C84.4588 78.3918 82.3217 81.0568 80.8721 84.0845V84.0845C76.4233 93.3765 66.0424 98.3307 56.0058 96.0069V96.0069C52.7256 95.2474 49.2744 95.2474 45.9942 96.0069V96.0069C35.9576 98.3307 25.5767 93.3765 21.1279 84.0845V84.0845C19.6783 81.0568 17.5412 78.3918 14.9028 76.3165V76.3165C6.81117 69.952 4.23176 58.776 8.75625 49.5288V49.5288C10.2322 46.5123 10.9925 43.1941 10.9782 39.8358V39.8358C10.9344 29.5513 18.0605 20.6184 28.0993 18.3832L28.3753 18.3218C31.5485 17.6152 34.5179 16.1917 37.056 14.1603L37.6785 13.6621Z" fill="#78A65A"/>
<circle cx="36.8498" cy="46.8498" r="5.84979" fill="#F2F2F2"/>
<circle cx="37.3812" cy="49.5087" r="3.1908" fill="#231F20"/>
<circle cx="65.5666" cy="46.8498" r="5.84979" fill="#F2F2F2"/>
<circle cx="66.098" cy="49.5087" r="3.1908" fill="#231F20"/>
</svg>
