<svg width="605" height="605" viewBox="0 0 605 605" fill="none" xmlns="http://www.w3.org/2000/svg">
<path d="M147.651 155.222L352.447 94.2746L507.627 241.159L458.011 448.992L253.215 509.939L98.035 363.054L147.651 155.222Z" fill="#0058F3"/>
<path d="M231.698 249.734C230.897 249.734 230.2 249.438 229.608 248.846L219.158 238.396C218.566 237.839 218.27 237.142 218.27 236.306V193.461C218.27 192.66 218.566 191.963 219.158 191.371L229.608 180.921C230.2 180.364 230.897 180.085 231.698 180.085H252.232C253.068 180.085 253.765 180.364 254.322 180.921L264.772 191.371C265.364 191.963 265.661 192.66 265.661 193.461V236.306C265.661 237.142 265.364 237.839 264.772 238.396L254.322 248.846C253.765 249.438 253.068 249.734 252.232 249.734H231.698ZM237.864 235.784H246.067C247.53 235.784 248.261 234.808 248.261 232.858V196.962C248.261 194.976 247.53 193.984 246.067 193.984H237.864C236.435 193.984 235.721 194.976 235.721 196.962V232.858C235.721 234.808 236.435 235.784 237.864 235.784ZM279.114 249.734C278.243 249.734 277.808 249.299 277.808 248.428V181.391C277.808 180.52 278.243 180.085 279.114 180.085H310.987C311.823 180.085 312.519 180.364 313.077 180.921L323.527 191.371C324.119 191.963 324.415 192.66 324.415 193.461V236.306C324.415 237.142 324.119 237.839 323.527 238.396L313.077 248.846C312.519 249.438 311.823 249.734 310.987 249.734H279.114ZM295.259 235.784H304.821C306.284 235.784 307.016 234.808 307.016 232.858V196.962C307.016 194.976 306.284 193.984 304.821 193.984H295.259V235.784ZM337.487 249.734C336.616 249.734 336.181 249.299 336.181 248.428V181.391C336.181 180.52 336.616 180.085 337.487 180.085H369.36C370.196 180.085 370.892 180.364 371.45 180.921L381.9 191.371C382.492 191.963 382.788 192.66 382.788 193.461V236.306C382.788 237.142 382.492 237.839 381.9 238.396L371.45 248.846C370.892 249.438 370.196 249.734 369.36 249.734H337.487ZM353.632 235.784H363.194C364.657 235.784 365.389 234.808 365.389 232.858V196.962C365.389 194.976 364.657 193.984 363.194 193.984H353.632V235.784Z" fill="#FFB6DD"/>
<path d="M232.735 431.735C231.891 431.735 231.158 431.423 230.535 430.8L219.535 419.8C218.911 419.213 218.6 418.48 218.6 417.6V372.5C218.6 371.656 218.911 370.923 219.535 370.3L230.535 359.3C231.158 358.713 231.891 358.42 232.735 358.42H254.35C255.23 358.42 255.963 358.713 256.55 359.3L267.55 370.3C268.173 370.923 268.485 371.656 268.485 372.5V417.6C268.485 418.48 268.173 419.213 267.55 419.8L256.55 430.8C255.963 431.423 255.23 431.735 254.35 431.735H232.735ZM239.225 417.05H247.86C249.4 417.05 250.17 416.023 250.17 413.97V376.185C250.17 374.095 249.4 373.05 247.86 373.05H239.225C237.721 373.05 236.97 374.095 236.97 376.185V413.97C236.97 416.023 237.721 417.05 239.225 417.05ZM295.791 431.735C294.911 431.735 294.178 431.423 293.591 430.8L282.591 419.8C281.968 419.213 281.656 418.48 281.656 417.6V359.795C281.656 358.878 282.115 358.42 283.031 358.42H298.596C299.513 358.42 299.971 358.878 299.971 359.795V415.95C299.971 416.683 300.338 417.05 301.071 417.05H310.091V359.795C310.091 358.878 310.55 358.42 311.466 358.42H327.031C327.948 358.42 328.406 358.878 328.406 359.795V430.36C328.406 431.276 327.948 431.735 327.031 431.735H295.791ZM353.973 431.735C353.056 431.735 352.598 431.276 352.598 430.36V373.05H342.973C342.056 373.05 341.598 372.591 341.598 371.675V359.795C341.598 358.878 342.056 358.42 342.973 358.42H380.538C381.454 358.42 381.913 358.878 381.913 359.795V371.675C381.913 372.591 381.454 373.05 380.538 373.05H370.913V430.36C370.913 431.276 370.454 431.735 369.538 431.735H353.973Z" fill="#FFB6DD"/>
<path d="M232.735 340.735C231.891 340.735 231.158 340.423 230.535 339.8L219.535 328.8C218.911 328.213 218.6 327.48 218.6 326.6V281.5C218.6 280.656 218.911 279.923 219.535 279.3L230.535 268.3C231.158 267.713 231.891 267.42 232.735 267.42H254.35C255.23 267.42 255.963 267.713 256.55 268.3L267.55 279.3C268.173 279.923 268.485 280.656 268.485 281.5V326.6C268.485 327.48 268.173 328.213 267.55 328.8L256.55 339.8C255.963 340.423 255.23 340.735 254.35 340.735H232.735ZM239.225 326.05H247.86C249.4 326.05 250.17 325.023 250.17 322.97V285.185C250.17 283.095 249.4 282.05 247.86 282.05H239.225C237.721 282.05 236.97 283.095 236.97 285.185V322.97C236.97 325.023 237.721 326.05 239.225 326.05ZM283.031 340.735C282.115 340.735 281.656 340.276 281.656 339.36V268.795C281.656 267.878 282.115 267.42 283.031 267.42H314.271C315.151 267.42 315.885 267.713 316.471 268.3L327.471 279.3C328.095 279.923 328.406 280.656 328.406 281.5V339.36C328.406 340.276 327.948 340.735 327.031 340.735H311.466C310.55 340.735 310.091 340.276 310.091 339.36V282.05H299.971V339.36C299.971 340.276 299.513 340.735 298.596 340.735H283.031ZM342.973 340.735C342.056 340.735 341.598 340.276 341.598 339.36V268.795C341.598 267.878 342.056 267.42 342.973 267.42H381.308C382.224 267.42 382.683 267.878 382.683 268.795V280.675C382.683 281.591 382.224 282.05 381.308 282.05H359.913V297.67H379.438C380.354 297.67 380.813 298.128 380.813 299.045V309.11C380.813 310.026 380.354 310.485 379.438 310.485H359.913V326.05H381.308C382.224 326.05 382.683 326.508 382.683 327.425V339.36C382.683 340.276 382.224 340.735 381.308 340.735H342.973Z" fill="#FFB6DD"/>
</svg>
